<?xml version="1.0" standalone="no"?>
<!DOCTYPE svg PUBLIC "-//W3C//DTD SVG 20010904//EN"
 "http://www.w3.org/TR/2001/REC-SVG-20010904/DTD/svg10.dtd">
<svg version="1.0" xmlns="http://www.w3.org/2000/svg"
 width="700.000000pt" height="700.000000pt" viewBox="0 0 700.000000 700.000000"
 preserveAspectRatio="xMidYMid meet">
<metadata>
Created by potrace 1.11, written by Peter Selinger 2001-2013
</metadata>
<g transform="translate(0.000000,700.000000) scale(0.100000,-0.100000)"
fill="#000000" stroke="none">
<path d="M1706 6984 c-229 -45 -439 -175 -571 -354 -57 -76 -136 -237 -149
-301 -3 -13 -10 -49 -17 -79 -9 -41 -12 -326 -13 -1107 -1 -579 0 -1053 1
-1053 2 0 660 655 1461 1455 l1457 1455 -1050 -1 c-840 -1 -1064 -4 -1119 -15z"/>
<path d="M5170 6993 c-127 -21 -279 -87 -370 -161 -25 -20 -243 -233 -485
-474 -242 -240 -583 -577 -757 -750 -1346 -1331 -1615 -1601 -1658 -1658 -57
-74 -101 -162 -125 -244 -23 -78 -25 -95 -25 -208 -1 -160 42 -294 140 -437
33 -48 520 -535 1700 -1701 164 -162 491 -486 727 -720 235 -234 454 -447 486
-473 72 -58 172 -110 269 -138 94 -27 272 -33 361 -13 376 87 627 411 604 783
-7 111 -16 147 -60 254 -34 82 -84 156 -159 234 -48 51 -1401 1392 -1919 1903
-170 168 -309 309 -309 312 0 8 -23 -15 1120 1118 463 459 909 901 990 982
192 190 253 272 295 393 37 108 44 163 40 290 -3 126 -26 212 -82 315 -34 62
-120 180 -132 180 -3 0 -22 14 -41 32 -81 72 -198 134 -312 164 -59 16 -243
26 -298 17z"/>
<path d="M955 1858 c1 -759 5 -1062 14 -1111 61 -349 330 -638 675 -727 78
-20 105 -20 1150 -20 l1071 0 -1450 1450 c-797 797 -1453 1449 -1456 1450 -3
0 -5 -469 -4 -1042z"/>
</g>
</svg>
